<svg width="46" height="46" viewBox="0 0 46 46" fill="none" xmlns="http://www.w3.org/2000/svg">
<path d="M21.4144 12.4293C21.1337 12.1485 20.6789 12.1485 20.3981 12.4293C20.1173 12.7101 20.1173 13.1649 20.3981 13.4457L29.9524 23L20.3981 32.5543C20.1173 32.8351 20.1173 33.2899 20.3981 33.5707C20.5385 33.711 20.7224 33.7812 20.9063 33.7812C21.0901 33.7812 21.2741 33.711 21.4144 33.5707L31.4769 23.5082C31.7577 23.2274 31.7577 22.7726 31.4769 22.4918L21.4144 12.4293Z" fill="white"/>
<path d="M46.0625 23C46.0625 35.7025 35.765 46 23.0625 46C10.36 46 0.0625 35.7025 0.0625 23C0.0625 10.2974 10.36 0 23.0625 0C35.765 0 46.0625 10.2974 46.0625 23ZM44.625 23C44.625 11.1104 34.9521 1.4375 23.0625 1.4375C11.1729 1.4375 1.5 11.1104 1.5 23C1.5 34.8896 11.1729 44.5625 23.0625 44.5625C34.9521 44.5625 44.625 34.8896 44.625 23Z" fill="white"/>
</svg>
