<svg width="46" height="46" viewBox="0 0 46 46" fill="none" xmlns="http://www.w3.org/2000/svg">
<path d="M21.3519 12.4293C21.0712 12.1485 20.6164 12.1485 20.3356 12.4293C20.0548 12.7101 20.0548 13.1649 20.3356 13.4457L29.8899 23L20.3356 32.5543C20.0548 32.8351 20.0548 33.2899 20.3356 33.5707C20.476 33.711 20.6599 33.7812 20.8438 33.7812C21.0276 33.7812 21.2116 33.711 21.3519 33.5707L31.4144 23.5082C31.6952 23.2274 31.6952 22.7726 31.4144 22.4918L21.3519 12.4293Z" fill="#CACACA"/>
<path d="M46 23C46 35.7025 35.7025 46 23 46C10.2975 46 0 35.7025 0 23C0 10.2974 10.2975 0 23 0C35.7025 0 46 10.2974 46 23ZM44.5625 23C44.5625 11.1104 34.8896 1.4375 23 1.4375C11.1104 1.4375 1.4375 11.1104 1.4375 23C1.4375 34.8896 11.1104 44.5625 23 44.5625C34.8896 44.5625 44.5625 34.8896 44.5625 23Z" fill="#CACACA"/>
</svg>
