<svg width="46" height="46" viewBox="0 0 46 46" fill="none" xmlns="http://www.w3.org/2000/svg">
<g clip-path="url(#clip0)">
<path d="M24.6481 33.5706C24.9288 33.8515 25.3836 33.8515 25.6644 33.5706C25.9452 33.2899 25.9452 32.8351 25.6644 32.5543L16.1101 23L25.6644 13.4456C25.9452 13.1649 25.9452 12.7101 25.6644 12.4293C25.524 12.289 25.3401 12.2187 25.1562 12.2187C24.9724 12.2187 24.7884 12.289 24.6481 12.4293L14.5856 22.4918C14.3048 22.7726 14.3048 23.2274 14.5856 23.5081L24.6481 33.5706Z" fill="#636262"/>
<path d="M0 23C0 10.2974 10.2975 -1.52588e-05 23 -1.52588e-05C35.7025 -1.52588e-05 46 10.2974 46 23C46 35.7026 35.7025 46 23 46C10.2975 46 0 35.7026 0 23ZM1.4375 23C1.4375 34.8896 11.1104 44.5625 23 44.5625C34.8896 44.5625 44.5625 34.8896 44.5625 23C44.5625 11.1104 34.8896 1.43748 23 1.43748C11.1104 1.43749 1.4375 11.1103 1.4375 23Z" fill="#636262"/>
</g>
<defs>
<clipPath id="clip0">
<rect width="46" height="46" fill="white" transform="matrix(0 1 1 0 0 -1.52588e-05)"/>
</clipPath>
</defs>
</svg>
