<svg width="46" height="46" viewBox="0 0 46 46" fill="none" xmlns="http://www.w3.org/2000/svg">
<path d="M24.6481 12.4293C24.9288 12.1485 25.3836 12.1485 25.6644 12.4293C25.9452 12.7101 25.9452 13.1649 25.6644 13.4457L16.1101 23L25.6644 32.5543C25.9452 32.8351 25.9452 33.2899 25.6644 33.5707C25.524 33.711 25.3401 33.7812 25.1562 33.7812C24.9724 33.7812 24.7884 33.711 24.6481 33.5707L14.5856 23.5082C14.3048 23.2274 14.3048 22.7726 14.5856 22.4918L24.6481 12.4293Z" fill="#CACACA"/>
<path d="M0 23C0 35.7025 10.2975 46 23 46C35.7025 46 46 35.7025 46 23C46 10.2974 35.7025 0 23 0C10.2975 0 0 10.2974 0 23ZM1.4375 23C1.4375 11.1104 11.1104 1.4375 23 1.4375C34.8896 1.4375 44.5625 11.1104 44.5625 23C44.5625 34.8896 34.8896 44.5625 23 44.5625C11.1104 44.5625 1.4375 34.8896 1.4375 23Z" fill="#CACACA"/>
</svg>
