<svg width="2410" height="810" viewBox="0 0 2410 810" fill="none" xmlns="http://www.w3.org/2000/svg">
<path d="M1125 400H1085C1038.06 400 1000 438.056 1000 485V725C1000 771.944 1038.06 810 1085 810H1125C1171.94 810 1210 771.944 1210 725V485C1210 438.056 1171.94 400 1125 400Z" fill="url(#paint0_linear_5815_331)"/>
<path d="M2325 0H2285C2238.06 0 2200 38.0558 2200 85V325C2200 371.944 2238.06 410 2285 410H2325C2371.94 410 2410 371.944 2410 325V85C2410 38.0558 2371.94 0 2325 0Z" fill="url(#paint1_linear_5815_331)"/>
<path d="M1125 0H1085C1038.06 0 1000 38.0558 1000 85V125C1000 171.944 1038.06 210 1085 210H1125C1171.94 210 1210 171.944 1210 125V85C1210 38.0558 1171.94 0 1125 0Z" fill="url(#paint2_linear_5815_331)"/>
<path d="M2325 600H2285C2238.06 600 2200 638.056 2200 685V725C2200 771.944 2238.06 810 2285 810H2325C2371.94 810 2410 771.944 2410 725V685C2410 638.056 2371.94 600 2325 600Z" fill="url(#paint3_linear_5815_331)"/>
<path d="M1685 0C1638.06 0 1600 38.0558 1600 85V125C1600 166.421 1566.42 200 1525 200H1485C1438.06 200 1400 238.056 1400 285V325C1400 371.944 1438.06 410 1485 410H1525C1566.42 410 1600 443.579 1600 485V525C1600 566.421 1566.42 600 1525 600H1485C1438.06 600 1400 638.056 1400 685V725C1400 771.944 1438.06 810 1485 810H1525C1571.94 810 1610 771.944 1610 725V685C1610 643.579 1643.58 610 1685 610H1925C1971.94 610 2010 571.944 2010 525V485C2010 438.056 1971.94 400 1925 400H1685C1643.58 400 1610 366.421 1610 325V285C1610 243.579 1643.58 210 1685 210H1925C1971.94 210 2010 171.944 2010 125V85C2010 38.0558 1971.94 0 1925 0H1685Z" fill="url(#paint4_linear_5815_331)"/>
<path d="M85 0C38.0558 0 0 38.0558 0 85V125C0 171.944 38.0558 210 85 210H125C166.421 210 200 243.579 200 285V325C200 366.421 166.421 400 125 400H85C38.0558 400 0 438.056 0 485V725C0 771.944 38.0558 810 85 810H125C171.944 810 210 771.944 210 725V485C210 443.579 243.579 410 285 410H325C366.421 410 400 443.579 400 485V525C400 571.944 438.056 610 485 610H525C566.421 610 600 643.579 600 685V725C600 771.944 638.056 810 685 810H725C771.944 810 810 771.944 810 725V685C810 638.056 771.944 600 725 600H685C643.579 600 610 566.421 610 525V485C610 443.579 643.579 410 685 410H725C771.944 410 810 371.944 810 325V85C810 38.0558 771.944 0 725 0H685C638.056 0 600 38.0558 600 85V325C600 366.421 566.421 400 525 400H485C443.579 400 410 366.421 410 325V285C410 238.056 371.944 200 325 200H285C243.579 200 210 166.421 210 125V85C210 38.0558 171.944 0 125 0H85Z" fill="url(#paint5_linear_5815_331)"/>
<defs>
<linearGradient id="paint0_linear_5815_331" x1="-35" y1="735.5" x2="2450" y2="135.5" gradientUnits="userSpaceOnUse">
<stop stop-color="#5C0AE1"/>
<stop offset="0.453123" stop-color="#9739B0"/>
<stop offset="1" stop-color="#FD8760"/>
</linearGradient>
<linearGradient id="paint1_linear_5815_331" x1="-35" y1="735.5" x2="2450" y2="135.5" gradientUnits="userSpaceOnUse">
<stop stop-color="#5C0AE1"/>
<stop offset="0.453123" stop-color="#9739B0"/>
<stop offset="1" stop-color="#FD8760"/>
</linearGradient>
<linearGradient id="paint2_linear_5815_331" x1="-35" y1="735.5" x2="2450" y2="135.5" gradientUnits="userSpaceOnUse">
<stop stop-color="#5C0AE1"/>
<stop offset="0.453123" stop-color="#9739B0"/>
<stop offset="1" stop-color="#FD8760"/>
</linearGradient>
<linearGradient id="paint3_linear_5815_331" x1="-35" y1="735.5" x2="2450" y2="135.5" gradientUnits="userSpaceOnUse">
<stop stop-color="#5C0AE1"/>
<stop offset="0.453123" stop-color="#9739B0"/>
<stop offset="1" stop-color="#FD8760"/>
</linearGradient>
<linearGradient id="paint4_linear_5815_331" x1="-35" y1="735.5" x2="2450" y2="135.5" gradientUnits="userSpaceOnUse">
<stop stop-color="#5C0AE1"/>
<stop offset="0.453123" stop-color="#9739B0"/>
<stop offset="1" stop-color="#FD8760"/>
</linearGradient>
<linearGradient id="paint5_linear_5815_331" x1="-35" y1="735.5" x2="2450" y2="135.5" gradientUnits="userSpaceOnUse">
<stop stop-color="#5C0AE1"/>
<stop offset="0.453123" stop-color="#9739B0"/>
<stop offset="1" stop-color="#FD8760"/>
</linearGradient>
</defs>
</svg>
