<svg viewBox="0 0 121 121" fill="none" xmlns="http://www.w3.org/2000/svg">
<path d="M37.6996 50.4242L61.0065 27.1267L84.323 50.4431L97.8768 36.8798L61.0065 0L24.1362 36.8703L37.6996 50.4242Z" fill="#0E1E3A"/>
<path d="M0.995117 60.0039L14.5535 46.4455L28.1119 60.0039L14.5535 73.5623L0.995117 60.0039Z" fill="#0E1E3A"/>
<path d="M61.0064 92.8866L37.6995 69.5796L24.1172 83.124L61.0064 120.004L97.8862 83.1145L84.3229 69.5702L61.0064 92.8866Z" fill="#0E1E3A"/>
<path d="M93.8784 60.0073L107.437 46.4489L120.995 60.0073L107.437 73.5657L93.8784 60.0073Z" fill="#0E1E3A"/>
<path d="M61.0067 46.2348L74.7596 59.9972H74.7691L61.0067 73.769L47.2538 60.0256L47.2349 59.9972L49.6613 57.5707L50.8366 56.4049L61.0067 46.2348Z" fill="#0E1E3A"/>
</svg>
