<svg width="13" height="15" viewBox="0 0 13 15" fill="none" xmlns="http://www.w3.org/2000/svg">
<path d="M1.97001 15.0001L8.27187 15.0001C9.18726 15.0001 9.93202 14.2553 9.93202 13.3399V13.1362H11.03C11.9454 13.1362 12.6902 12.3914 12.6902 11.476L12.6902 1.66014C12.6902 0.744752 11.9454 -1.14441e-05 11.03 -1.14441e-05L4.72817 -1.14441e-05C3.81278 -1.14441e-05 3.06809 0.744752 3.06809 1.66014V1.8639H1.97008C1.05469 1.8639 0.309923 2.60866 0.309923 3.52405L0.309923 13.3399C0.309853 14.2553 1.05462 15.0001 1.97001 15.0001ZM4.1389 1.66014C4.1389 1.33524 4.40327 1.07087 4.7281 1.07087L11.03 1.07087C11.3549 1.07087 11.6193 1.33524 11.6193 1.66014L11.6193 11.4761C11.6193 11.801 11.3549 12.0653 11.03 12.0653H4.72817C4.40327 12.0653 4.13897 11.801 4.13897 11.4761L4.13897 1.66014H4.1389ZM1.38074 3.52405C1.38074 3.19914 1.6451 2.93478 1.97001 2.93478H3.06802L3.06802 11.4761C3.06802 12.3915 3.81278 13.1362 4.7281 13.1362H8.86114V13.34C8.86114 13.6649 8.59677 13.9292 8.27187 13.9292L1.97001 13.9292C1.6451 13.9292 1.38074 13.6649 1.38074 13.34L1.38074 3.52405Z" fill="#4B4B4B"/>
</svg>
