<svg width="20" height="22" viewBox="0 0 20 22" fill="none" xmlns="http://www.w3.org/2000/svg">
<path d="M3.35617 22.0001L12.5989 22.0001C13.9415 22.0001 15.0338 20.9078 15.0338 19.5652V19.2664H16.6442C17.9868 19.2664 19.0791 18.1741 19.0791 16.8315L19.0791 2.43491C19.0791 1.09234 17.9868 1.71661e-05 16.6442 1.71661e-05H7.40148C6.05891 1.71661e-05 4.96669 1.09234 4.96669 2.43491V2.73375L3.35628 2.73375C2.0137 2.73375 0.921383 3.82607 0.921383 5.16864L0.921383 19.5652C0.921278 20.9078 2.0136 22.0001 3.35617 22.0001ZM6.53722 2.43491C6.53722 1.95838 6.92495 1.57065 7.40138 1.57065H16.6442C17.1207 1.57065 17.5085 1.95838 17.5085 2.43491L17.5085 16.8316C17.5085 17.3081 17.1207 17.6959 16.6442 17.6959H7.40148C6.92495 17.6959 6.53732 17.3081 6.53732 16.8316L6.53732 2.43491H6.53722ZM2.49191 5.16864C2.49191 4.69211 2.87964 4.30438 3.35617 4.30438L4.96659 4.30438L4.96659 16.8316C4.96659 18.1742 6.05891 19.2665 7.40138 19.2665H13.4632V19.5653C13.4632 20.0419 13.0754 20.4296 12.5989 20.4296L3.35617 20.4296C2.87964 20.4296 2.49191 20.0419 2.49191 19.5653L2.49191 5.16864Z" fill="#4B4B4B"/>
</svg>
