<svg width="27" height="27" viewBox="0 0 27 27" fill="none" xmlns="http://www.w3.org/2000/svg">
<path d="M27 13.5C27 20.9558 20.9558 27 13.5 27C6.04416 27 0 20.9558 0 13.5C0 6.04416 6.04416 0 13.5 0C20.9558 0 27 6.04416 27 13.5Z" fill="#343942"/>
<path fill-rule="evenodd" clip-rule="evenodd" d="M13.6521 3.55273C13.8549 3.55266 14.0402 3.66775 14.1301 3.84961L16.7714 9.19651L22.6735 10.0519C22.8742 10.081 23.041 10.2216 23.1038 10.4144C23.1665 10.6073 23.1143 10.8191 22.9691 10.9608L18.7001 15.1251L19.7104 21.0026C19.7448 21.2025 19.6627 21.4046 19.4986 21.5239C19.3346 21.6432 19.117 21.659 18.9375 21.5647L13.6577 18.7915L8.3801 21.5686C8.20059 21.6631 7.98302 21.6474 7.81887 21.5282C7.65473 21.4091 7.57247 21.2071 7.60668 21.0071L8.61262 15.1289L4.34053 10.9677C4.19522 10.8261 4.14287 10.6144 4.20548 10.4215C4.26809 10.2285 4.4348 10.0879 4.63553 10.0586L10.537 9.19883L13.1743 3.84997C13.264 3.66804 13.4492 3.55281 13.6521 3.55273ZM13.6527 5.28973L11.369 9.92143C11.2914 10.0787 11.1414 10.1878 10.9679 10.2131L5.85766 10.9576L9.55696 14.5609C9.6826 14.6832 9.73997 14.8596 9.71039 15.0325L8.83933 20.1226L13.4094 17.7178C13.5646 17.6361 13.75 17.6361 13.9053 17.7176L18.4771 20.119L17.6023 15.0295C17.5726 14.8567 17.6298 14.6803 17.7554 14.5578L21.452 10.9518L16.3413 10.2111C16.1677 10.1859 16.0176 10.077 15.9399 9.91973L13.6527 5.28973Z" fill="#f5f5f7"/>
<path fill-rule="evenodd" clip-rule="evenodd" d="M13.6547 20.8809C13.8144 20.8809 13.9546 20.9875 13.9971 21.1415L14.8333 24.1666C14.8628 24.2735 14.8407 24.3881 14.7735 24.4764C14.7063 24.5647 14.6018 24.6165 14.4908 24.6165H12.8185C12.7076 24.6165 12.603 24.5647 12.5358 24.4764C12.4686 24.3881 12.4465 24.2735 12.4761 24.1666L13.3123 21.1415C13.3548 20.9875 13.4949 20.8809 13.6547 20.8809ZM13.2853 23.906H14.0241L13.6547 22.5696L13.2853 23.906Z" fill="#f5f5f7"/>
<path fill-rule="evenodd" clip-rule="evenodd" d="M20.6845 15.7738C20.7339 15.6219 20.8786 15.5216 21.0382 15.5287L24.1737 15.6683C24.2845 15.6732 24.3867 15.7297 24.4499 15.8208C24.5131 15.912 24.53 16.0275 24.4957 16.133L23.979 17.7234C23.9447 17.8289 23.8631 17.9124 23.7584 17.949C23.6537 17.9856 23.5378 17.9712 23.4453 17.91L20.8266 16.18C20.6933 16.0919 20.6352 15.9257 20.6845 15.7738ZM22.2907 16.2957L23.4475 17.0599L23.6758 16.3574L22.2907 16.2957Z" fill="#f5f5f7"/>
<path fill-rule="evenodd" clip-rule="evenodd" d="M6.66591 15.8959C6.71792 16.0469 6.66271 16.2141 6.53097 16.3045L3.94284 18.0799C3.85135 18.1427 3.73581 18.1591 3.63047 18.1243C3.52512 18.0895 3.44208 18.0075 3.40596 17.9026L2.86152 16.3215C2.8254 16.2166 2.84036 16.1008 2.90195 16.0086C2.96355 15.9163 3.06471 15.8581 3.17544 15.8512L6.30801 15.6569C6.46746 15.647 6.6139 15.7448 6.66591 15.8959ZM3.6853 16.5315L3.92581 17.23L5.06911 16.4457L3.6853 16.5315Z" fill="#f5f5f7"/>
<path fill-rule="evenodd" clip-rule="evenodd" d="M19.6997 4.24648C19.8074 4.22015 19.9213 4.24569 20.0075 4.31551L21.3071 5.36792C21.3933 5.43774 21.442 5.54382 21.4387 5.65471C21.4353 5.7656 21.3804 5.86856 21.2901 5.93306L18.7365 7.75784C18.6065 7.85073 18.4305 7.84543 18.3064 7.74489C18.1822 7.64435 18.1405 7.47331 18.2043 7.32686L19.4583 4.44965C19.5026 4.34795 19.5919 4.2728 19.6997 4.24648ZM19.9231 5.16144L19.3692 6.43245L20.4972 5.62635L19.9231 5.16144Z" fill="#f5f5f7"/>
<path fill-rule="evenodd" clip-rule="evenodd" d="M7.936 4.04162C8.04279 4.07169 8.1294 4.14991 8.17015 4.2531L9.32296 7.17228C9.38164 7.32087 9.33392 7.49035 9.20633 7.5865C9.07874 7.68264 8.90267 7.6818 8.77602 7.58443L6.28767 5.67164C6.19972 5.60403 6.1484 5.49921 6.14893 5.38828C6.14946 5.27734 6.20179 5.17302 6.29039 5.10625L7.62591 4.09986C7.71451 4.0331 7.82921 4.01155 7.936 4.04162ZM7.09078 5.39279L8.18998 6.23776L7.68074 4.94823L7.09078 5.39279Z" fill="#f5f5f7"/>
</svg>
