<svg width="154" height="40" viewBox="0 0 154 40" fill="none" xmlns="http://www.w3.org/2000/svg">
<path d="M49.674 27V14.436H57.342V15.768H51.186V19.98H56.982V21.312H51.186V25.668H57.342V27H49.674ZM62.8544 27L58.6784 14.436H60.2984L62.3684 20.772L63.7544 25.488H63.8444L65.2664 20.772L67.3544 14.436H68.9204L64.6904 27H62.8544ZM70.9611 27V14.436H78.6291V15.768H72.4731V19.98H78.2691V21.312H72.4731V25.668H78.6291V27H70.9611ZM82.9673 27H81.4553V14.436H86.4593C87.5633 14.436 88.4213 14.742 89.0332 15.354C89.6573 15.966 89.9693 16.848 89.9693 18C89.9693 18.924 89.7533 19.686 89.3213 20.286C88.9013 20.874 88.2773 21.264 87.4493 21.456L90.3293 27H88.6193L85.9013 21.6H82.9673V27ZM86.4593 20.304C87.0593 20.304 87.5213 20.148 87.8453 19.836C88.1813 19.524 88.3493 19.08 88.3493 18.504V17.568C88.3493 16.992 88.1813 16.548 87.8453 16.236C87.5213 15.924 87.0593 15.768 86.4593 15.768H82.9673V20.304H86.4593ZM98.9688 27L95.9088 14.436H97.5108L98.8608 20.484L99.9048 25.182H99.9408L101.111 20.484L102.695 14.436H104.423L105.953 20.484L107.123 25.164H107.177L108.257 20.484L109.679 14.436H111.227L108.005 27H106.331L104.693 20.736L103.541 16.128H103.505L102.317 20.736L100.643 27H98.9688ZM119.684 27C119.144 27 118.754 26.856 118.514 26.568C118.286 26.28 118.142 25.92 118.082 25.488H117.992C117.788 26.064 117.452 26.496 116.984 26.784C116.516 27.072 115.958 27.216 115.31 27.216C114.326 27.216 113.558 26.964 113.006 26.46C112.466 25.956 112.196 25.272 112.196 24.408C112.196 23.532 112.514 22.86 113.15 22.392C113.798 21.924 114.8 21.69 116.156 21.69H117.992V20.772C117.992 20.112 117.812 19.608 117.452 19.26C117.092 18.912 116.54 18.738 115.796 18.738C115.232 18.738 114.758 18.864 114.374 19.116C114.002 19.368 113.69 19.704 113.438 20.124L112.574 19.314C112.826 18.81 113.228 18.384 113.78 18.036C114.332 17.676 115.028 17.496 115.868 17.496C116.996 17.496 117.872 17.772 118.496 18.324C119.12 18.876 119.432 19.644 119.432 20.628V25.74H120.494V27H119.684ZM115.544 25.992C115.904 25.992 116.234 25.95 116.534 25.866C116.834 25.782 117.092 25.662 117.308 25.506C117.524 25.35 117.692 25.17 117.812 24.966C117.932 24.762 117.992 24.54 117.992 24.3V22.77H116.084C115.256 22.77 114.65 22.89 114.266 23.13C113.894 23.37 113.708 23.718 113.708 24.174V24.552C113.708 25.008 113.87 25.362 114.194 25.614C114.53 25.866 114.98 25.992 115.544 25.992ZM124.08 27C123.576 27 123.192 26.862 122.928 26.586C122.676 26.298 122.55 25.938 122.55 25.506V13.68H123.99V25.74H125.358V27H124.08ZM128.896 27C128.392 27 128.008 26.862 127.744 26.586C127.492 26.298 127.366 25.938 127.366 25.506V13.68H128.806V25.74H130.174V27H128.896ZM135.762 27.216C135.126 27.216 134.55 27.102 134.034 26.874C133.53 26.646 133.092 26.322 132.72 25.902C132.36 25.47 132.078 24.96 131.874 24.372C131.682 23.772 131.586 23.1 131.586 22.356C131.586 21.624 131.682 20.958 131.874 20.358C132.078 19.758 132.36 19.248 132.72 18.828C133.092 18.396 133.53 18.066 134.034 17.838C134.55 17.61 135.126 17.496 135.762 17.496C136.386 17.496 136.944 17.61 137.436 17.838C137.928 18.066 138.348 18.384 138.696 18.792C139.044 19.188 139.308 19.662 139.488 20.214C139.68 20.766 139.776 21.372 139.776 22.032V22.716H133.098V23.148C133.098 23.544 133.158 23.916 133.278 24.264C133.41 24.6 133.59 24.894 133.818 25.146C134.058 25.398 134.346 25.596 134.682 25.74C135.03 25.884 135.42 25.956 135.852 25.956C136.44 25.956 136.95 25.818 137.382 25.542C137.826 25.266 138.168 24.87 138.408 24.354L139.434 25.092C139.134 25.728 138.666 26.244 138.03 26.64C137.394 27.024 136.638 27.216 135.762 27.216ZM135.762 18.702C135.366 18.702 135.006 18.774 134.682 18.918C134.358 19.05 134.076 19.242 133.836 19.494C133.608 19.746 133.428 20.046 133.296 20.394C133.164 20.73 133.098 21.102 133.098 21.51V21.636H138.228V21.438C138.228 20.61 138 19.95 137.544 19.458C137.1 18.954 136.506 18.702 135.762 18.702ZM144.201 27C143.697 27 143.313 26.862 143.049 26.586C142.797 26.298 142.671 25.926 142.671 25.47V18.972H141.141V17.712H142.005C142.317 17.712 142.527 17.652 142.635 17.532C142.755 17.4 142.815 17.178 142.815 16.866V15.138H144.111V17.712H146.145V18.972H144.111V25.74H146.001V27H144.201Z" fill="#4B4B4B"/>
<circle cx="24.5" cy="20.5" r="15.5" fill="#636262"/>
<path d="M33.4884 12V24.9419L25.186 33V20.3023H12L20.3023 12H33.4884Z" fill="#C4E4F3"/>
</svg>
