<svg width="154" height="40" viewBox="0 0 154 40" fill="none" xmlns="http://www.w3.org/2000/svg">
<path d="M60.2822 26.1758C58.9287 26.1758 57.8301 25.751 56.9863 24.9014C56.1484 24.0459 55.7295 22.9092 55.7295 21.4912V21.2275C55.7295 20.2783 55.9111 19.4316 56.2744 18.6875C56.6436 17.9375 57.1592 17.3545 57.8213 16.9385C58.4834 16.5225 59.2217 16.3145 60.0361 16.3145C61.3311 16.3145 62.3301 16.7275 63.0332 17.5537C63.7422 18.3799 64.0967 19.5488 64.0967 21.0605V21.9219H57.8828C57.9473 22.707 58.208 23.3281 58.665 23.7852C59.1279 24.2422 59.708 24.4707 60.4053 24.4707C61.3838 24.4707 62.1807 24.0752 62.7959 23.2842L63.9473 24.3828C63.5664 24.9512 63.0566 25.3936 62.418 25.71C61.7852 26.0205 61.0732 26.1758 60.2822 26.1758ZM60.0273 18.0283C59.4414 18.0283 58.9668 18.2334 58.6035 18.6436C58.2461 19.0537 58.0176 19.625 57.918 20.3574H61.9873V20.1992C61.9404 19.4844 61.75 18.9453 61.416 18.582C61.082 18.2129 60.6191 18.0283 60.0273 18.0283ZM69.1768 19.6191L70.9873 16.4902H73.3604L70.4512 21.1748L73.457 26H71.1016L69.2031 22.748L67.3135 26H64.9404L67.9463 21.1748L65.0459 16.4902H67.4014L69.1768 19.6191ZM77.4912 14.1787V16.4902H79.1699V18.0723H77.4912V23.3809C77.4912 23.7441 77.5615 24.0078 77.7021 24.1719C77.8486 24.3301 78.1064 24.4092 78.4756 24.4092C78.7217 24.4092 78.9707 24.3799 79.2227 24.3213V25.9736C78.7363 26.1084 78.2676 26.1758 77.8164 26.1758C76.1758 26.1758 75.3555 25.2705 75.3555 23.46V18.0723H73.791V16.4902H75.3555V14.1787H77.4912ZM85.7881 18.4414C85.5068 18.3945 85.2168 18.3711 84.918 18.3711C83.9395 18.3711 83.2803 18.7461 82.9404 19.4961V26H80.8047V16.4902H82.8438L82.8965 17.5537C83.4121 16.7275 84.127 16.3145 85.041 16.3145C85.3457 16.3145 85.5977 16.3555 85.7969 16.4375L85.7881 18.4414ZM92.5557 26C92.4619 25.8184 92.3799 25.5225 92.3096 25.1123C91.6299 25.8213 90.7979 26.1758 89.8135 26.1758C88.8584 26.1758 88.0791 25.9033 87.4756 25.3584C86.8721 24.8135 86.5703 24.1396 86.5703 23.3369C86.5703 22.3232 86.9453 21.5469 87.6953 21.0078C88.4512 20.4629 89.5293 20.1904 90.9297 20.1904H92.2393V19.5664C92.2393 19.0742 92.1016 18.6816 91.8262 18.3887C91.5508 18.0898 91.1318 17.9404 90.5693 17.9404C90.083 17.9404 89.6846 18.0635 89.374 18.3096C89.0635 18.5498 88.9082 18.8574 88.9082 19.2324H86.7725C86.7725 18.7109 86.9453 18.2246 87.291 17.7734C87.6367 17.3164 88.1055 16.959 88.6973 16.7012C89.2949 16.4434 89.96 16.3145 90.6924 16.3145C91.8057 16.3145 92.6934 16.5957 93.3555 17.1582C94.0176 17.7148 94.3574 18.5 94.375 19.5137V23.8027C94.375 24.6582 94.4951 25.3408 94.7354 25.8506V26H92.5557ZM90.209 24.4619C90.6309 24.4619 91.0264 24.3594 91.3955 24.1543C91.7705 23.9492 92.0518 23.6738 92.2393 23.3281V21.5352H91.0879C90.2969 21.5352 89.7021 21.6729 89.3037 21.9482C88.9053 22.2236 88.7061 22.6133 88.7061 23.1172C88.7061 23.5273 88.8408 23.8555 89.1104 24.1016C89.3857 24.3418 89.752 24.4619 90.209 24.4619ZM106.064 14.9961H102.074V26H99.8682V14.9961H95.9131V13.2031H106.064V14.9961ZM117.719 19.9355C117.719 21.1895 117.502 22.291 117.068 23.2402C116.635 24.1836 116.014 24.9102 115.205 25.4199C114.402 25.9238 113.477 26.1758 112.428 26.1758C111.391 26.1758 110.465 25.9238 109.65 25.4199C108.842 24.9102 108.215 24.1865 107.77 23.249C107.33 22.3115 107.107 21.2305 107.102 20.0059V19.2852C107.102 18.0371 107.321 16.9355 107.761 15.9805C108.206 15.0254 108.83 14.2959 109.633 13.792C110.441 13.2822 111.367 13.0273 112.41 13.0273C113.453 13.0273 114.376 13.2793 115.179 13.7832C115.987 14.2812 116.611 15.002 117.051 15.9453C117.49 16.8828 117.713 17.9756 117.719 19.2236V19.9355ZM115.495 19.2676C115.495 17.8496 115.226 16.7627 114.687 16.0068C114.153 15.251 113.395 14.873 112.41 14.873C111.449 14.873 110.696 15.251 110.151 16.0068C109.612 16.7568 109.337 17.8203 109.325 19.1973V19.9355C109.325 21.3418 109.598 22.4287 110.143 23.1963C110.693 23.9639 111.455 24.3477 112.428 24.3477C113.412 24.3477 114.168 23.9727 114.695 23.2227C115.229 22.4727 115.495 21.377 115.495 19.9355V19.2676ZM130.085 26H127.861L122.157 16.9209V26H119.934V13.2031H122.157L127.879 22.3174V13.2031H130.085V26Z" fill="#4B4B4B"/>
<circle cx="24.5" cy="20.5" r="15.5" fill="#636262"/>
<path fill-rule="evenodd" clip-rule="evenodd" d="M27.0799 9.04905C27.5158 8.89338 27.9954 9.12054 28.151 9.55644L29.1987 12.4897C29.3543 12.9256 29.1272 13.4052 28.6913 13.5609C28.2554 13.7166 27.7758 13.4894 27.6201 13.0535L26.5725 10.1202C26.4168 9.6843 26.644 9.20473 27.0799 9.04905ZM33.1059 9.73113C33.5122 9.95277 33.662 10.4619 33.4403 10.8682L32.1832 13.1729C31.9616 13.5793 31.4525 13.729 31.0461 13.5074C30.6398 13.2857 30.4901 12.7766 30.7117 12.3703L31.9688 10.0656C32.1905 9.65922 32.6996 9.50948 33.1059 9.73113ZM36.951 14.0612C37.1066 14.497 36.8795 14.9766 36.4436 15.1323L33.5103 16.1799C33.0744 16.3356 32.5948 16.1084 32.4391 15.6725C32.2834 15.2366 32.5106 14.7571 32.9465 14.6014L35.8798 13.5538C36.3157 13.3981 36.7953 13.6253 36.951 14.0612ZM18.5126 15.5263C18.6704 15.3094 18.9223 15.1811 19.1904 15.1811H29.9808C30.2626 15.1811 30.5255 15.3227 30.6806 15.558L33.7186 20.1675C33.9276 20.4845 33.8973 20.9023 33.6449 21.1859L25.1593 30.7191C25.0014 30.8965 24.7757 30.9985 24.5383 31C24.3009 31.0014 24.074 30.9021 23.914 30.7267L15.2189 21.1935C14.9508 20.8995 14.9263 20.4575 15.1603 20.1357L18.5126 15.5263ZM19.6172 16.8573L17.4839 19.7906H19.9777L21.111 16.8573H19.6172ZM22.9079 16.8573L21.7746 19.7906H27.1871L26.0538 16.8573H22.9079ZM27.8507 16.8573L28.984 19.7906H31.4627L29.5294 16.8573H27.8507ZM31.1509 21.4668H28.9733L27.1422 25.9703L31.1509 21.4668ZM24.5229 27.9622L27.1639 21.4668H21.8105L24.5229 27.9622ZM19.9941 21.4668H17.7368L21.9002 26.0314L19.9941 21.4668Z" fill="#4FCBFE"/>
</svg>
