<svg width="8" height="14" viewBox="0 0 8 14" fill="none" xmlns="http://www.w3.org/2000/svg">
<path d="M7.38576 7.38597L7.45634 7.45655C7.57738 7.33551 7.64541 7.17135 7.64541 7.00013C7.64541 6.82897 7.57743 6.66477 7.45638 6.54374C7.45637 6.54374 7.45637 6.54374 7.45636 6.54373L2.00183 1.08906C1.74976 0.836987 1.34111 0.836985 1.08904 1.08901L7.38576 7.38597ZM7.38576 7.38597L7.45634 7.45655L2.00179 12.9109C1.74972 13.163 1.34106 13.163 1.08899 12.9109C0.836963 12.6589 0.836918 12.2502 1.08899 11.9981L1.15846 12.0676M7.38576 7.38597L1.15846 12.0676M1.15846 12.0676L1.08899 11.9981L6.08712 7.00013M1.15846 12.0676L6.08712 7.00013M6.08712 7.00013L1.08899 2.00185C0.962971 1.87584 0.899958 1.71047 0.899958 1.54544C0.899958 1.38041 0.96297 1.21504 1.08904 1.08901L6.08712 7.00013Z" fill="#A3A3A3" stroke="#A3A3A3" stroke-width="0.2"/>
</svg>
