<svg width="23" height="18" viewBox="0 0 28 24" fill="none" xmlns="http://www.w3.org/2000/svg">
  <path d="M20.9337 0.34436C18.5196 0.34436 16.3869 1.55635 15.1125 3.4031C15.1125 3.4031 14.6822 4.04705 13.9997 4.04705C13.3178 4.04705 12.8875 3.4031 12.8875 3.4031C11.6124 1.55635 9.48106 0.34436 7.06626 0.34436C3.16341 0.34436 0 3.50777 0 7.41185C0 8.33369 0.181186 9.21085 0.501935 10.0182C2.48152 16.1651 11.3352 23.3917 13.9997 23.6556C16.6648 23.3917 25.5173 16.1651 27.4981 10.0182C27.8188 9.21147 28 8.33369 28 7.41185C28 3.50777 24.8366 0.34436 20.9337 0.34436Z" fill="#E4456C"/>
</svg>
