<svg width="9.6" height="14" viewBox="0 0 16 20" fill="none" xmlns="http://www.w3.org/2000/svg">
  <path d="M13.8751 12C15.0138 12 15.9438 12.8955 15.9975 14.0214L16 14.1243V14.5C16 16.3778 15.0292 17.7834 13.5399 18.6901C12.0754 19.5816 10.1069 20 8 20C5.89305 20 3.92455 19.5816 2.4601 18.6901C1.01596 17.8109 0.0593144 16.4625 0.00266171 14.6694L0 14.5V14.1245C0 12.9852 0.896475 12.0561 2.02202 12.0024L2.12495 12H13.8751ZM13.8751 13.25H2.12495C1.66567 13.25 1.28938 13.6033 1.2529 14.0527L1.25 14.1245V14.5C1.25 15.8722 1.9301 16.9041 3.1101 17.6224C4.31485 18.3559 6.03385 18.75 8 18.75C9.96615 18.75 11.6852 18.3559 12.8899 17.6224C14.0278 16.9297 14.7008 15.9455 14.7474 14.6457L14.75 14.5V14.1244C14.75 13.6656 14.3967 13.2894 13.9469 13.2529L13.8751 13.25ZM8 0C10.7614 0 13 2.23857 13 5C13 7.7614 10.7614 10 8 10C5.2386 10 3 7.7614 3 5C3 2.23857 5.2386 0 8 0ZM8 1.25C5.92895 1.25 4.25 2.92893 4.25 5C4.25 7.07105 5.92895 8.75 8 8.75C10.071 8.75 11.75 7.07105 11.75 5C11.75 2.92893 10.071 1.25 8 1.25Z" fill="#000000"/>
</svg>
