<svg width="33" height="28" viewBox="0 0 33 28" fill="none" xmlns="http://www.w3.org/2000/svg">
    <path d="M19.4227 0C17.1146 0 15.3997 1.91187 15.3997 4.095V7.875C12.3652 8.03687 9.6144 8.855 7.38797 10.15C6.53694 9.31437 5.40223 8.96 4.29332 8.96C3.09414 8.96 1.87347 9.35813 1.02674 10.325V10.36L0.992353 10.395C0.180007 11.4275 -0.150949 12.8056 0.063957 14.175C0.261671 15.4306 0.983757 16.7081 2.23021 17.535C2.22162 17.6619 2.19583 17.7887 2.19583 17.92C2.19583 20.8381 3.92797 23.3931 6.52834 25.165C9.12871 26.9369 12.636 28 16.5 28C20.364 28 23.8713 26.9369 26.4717 25.165C29.072 23.3931 30.8042 20.8381 30.8042 17.92C30.8042 17.7887 30.7784 17.6619 30.7698 17.535C32.0162 16.7081 32.7383 15.4306 32.936 14.175C33.151 12.8056 32.82 11.4275 32.0076 10.395L31.9733 10.36C31.1265 9.39313 29.9059 8.96 28.7067 8.96C27.5978 8.96 26.4631 9.31437 25.612 10.15C23.3856 8.855 20.6348 8.03687 17.6003 7.875V4.095C17.6003 2.99687 18.215 2.24 19.4227 2.24C19.9944 2.24 20.7036 2.51563 21.7953 2.905C22.7237 3.2375 23.9272 3.605 25.4745 3.71C25.8484 4.80375 26.8585 5.6 28.0534 5.6C29.5663 5.6 30.8042 4.34 30.8042 2.8C30.8042 1.26 29.5663 0 28.0534 0C27.0132 0 26.1149 0.599375 25.6464 1.47C24.3269 1.39125 23.3727 1.11125 22.5174 0.805C21.5245 0.450625 20.609 0 19.4227 0ZM16.5 10.08C19.9686 10.08 23.0632 11.0513 25.2338 12.53C27.4044 14.0088 28.6035 15.9075 28.6035 17.92C28.6035 19.9325 27.4044 21.8313 25.2338 23.31C23.0632 24.7887 19.9686 25.76 16.5 25.76C13.0314 25.76 9.93676 24.7887 7.7662 23.31C5.59565 21.8313 4.39647 19.9325 4.39647 17.92C4.39647 15.9075 5.59565 14.0088 7.7662 12.53C9.93676 11.0513 13.0314 10.08 16.5 10.08ZM4.29332 11.2C4.71023 11.2 5.12285 11.305 5.46241 11.48C4.26753 12.4994 3.33913 13.7113 2.78037 15.05C2.501 14.6913 2.33337 14.2625 2.2646 13.825C2.14425 13.0725 2.35916 12.2938 2.7116 11.83C2.7159 11.8213 2.70731 11.8038 2.7116 11.795C3.04686 11.4363 3.64 11.2 4.29332 11.2ZM28.7067 11.2C29.36 11.2 29.9531 11.4363 30.2884 11.795C30.2927 11.7994 30.2841 11.8256 30.2884 11.83C30.6408 12.2938 30.8558 13.0725 30.7354 13.825C30.6666 14.2625 30.499 14.6913 30.2196 15.05C29.6609 13.7113 28.7325 12.4994 27.5376 11.48C27.8771 11.305 28.2898 11.2 28.7067 11.2ZM10.9984 13.44C9.78203 13.44 8.79775 14.4419 8.79775 15.68C8.79775 16.9181 9.78203 17.92 10.9984 17.92C12.2148 17.92 13.199 16.9181 13.199 15.68C13.199 14.4419 12.2148 13.44 10.9984 13.44ZM22.0016 13.44C20.7852 13.44 19.801 14.4419 19.801 15.68C19.801 16.9181 20.7852 17.92 22.0016 17.92C23.218 17.92 24.2022 16.9181 24.2022 15.68C24.2022 14.4419 23.218 13.44 22.0016 13.44ZM22.2767 19.635C21.013 20.8294 18.8898 21.595 16.5 21.595C14.1102 21.595 11.987 20.8206 10.7233 19.775C11.4282 21.7175 13.689 23.52 16.5 23.52C19.311 23.52 21.5718 21.7262 22.2767 19.635Z" fill="#636262" />
</svg>
    