<svg width="31" height="28" viewBox="0 0 31 28" fill="none" xmlns="http://www.w3.org/2000/svg">
<path d="M26.0195 15.9805C25.7617 17.5156 25.2578 18.957 24.5078 20.3047C23.7578 21.6406 22.8145 22.8125 21.6777 23.8203C20.541 24.8164 19.2461 25.6016 17.793 26.1758C16.3398 26.7617 14.7812 27.0547 13.1172 27.0547C11.9102 27.0547 10.75 26.8906 9.63672 26.5625C8.52344 26.2461 7.48047 25.7949 6.50781 25.209C5.53516 24.623 4.65039 23.9199 3.85352 23.0996C3.05664 22.2793 2.37109 21.3711 1.79688 20.375C1.23438 19.3672 0.794922 18.2891 0.478516 17.1406C0.173828 15.9922 0.0214844 14.7969 0.0214844 13.5547C0.0214844 12.3125 0.173828 11.1172 0.478516 9.96875C0.794922 8.80859 1.23438 7.73047 1.79688 6.73438C2.37109 5.72656 3.05664 4.8125 3.85352 3.99219C4.65039 3.17187 5.53516 2.46875 6.50781 1.88281C7.48047 1.29688 8.52344 0.845703 9.63672 0.529297C10.75 0.201172 11.9102 0.0371094 13.1172 0.0371094C14.6641 0.0371094 16.123 0.265625 17.4941 0.722656C18.8652 1.17969 20.0898 1.82422 21.168 2.65625C22.2578 3.47656 23.1777 4.4668 23.9277 5.62695C24.6777 6.77539 25.2109 8.05273 25.5273 9.45898L29.5176 4.37891L30.7129 5.13477L25.8438 13.4492L24.7715 13.7129L16.5977 8.61523L17.2832 7.38477L23.2422 10.0742L23.3828 10.0391C23.0898 8.86719 22.6152 7.80664 21.959 6.85742C21.3145 5.9082 20.5352 5.09961 19.6211 4.43164C18.7188 3.75195 17.7051 3.23047 16.5801 2.86719C15.4551 2.49219 14.2773 2.30469 13.0469 2.30469C11.582 2.30469 10.2109 2.60352 8.93359 3.20117C7.65625 3.78711 6.53711 4.58984 5.57617 5.60938C4.62695 6.62891 3.87695 7.82422 3.32617 9.19531C2.77539 10.5547 2.5 12.0078 2.5 13.5547C2.5 15.1016 2.77539 16.5605 3.32617 17.9316C3.87695 19.291 4.62695 20.4805 5.57617 21.5C6.53711 22.5078 7.65625 23.3105 8.93359 23.9082C10.2109 24.4941 11.582 24.7871 13.0469 24.7871C14.3711 24.7871 15.6191 24.5586 16.791 24.1016C17.9746 23.6328 19.0293 22.9941 19.9551 22.1855C20.8926 21.377 21.6777 20.4219 22.3105 19.3203C22.9434 18.207 23.3828 17.0059 23.6289 15.7168L26.0195 15.9805Z" fill="#A3A3A3"/>
</svg>
