<svg width="18" height="18" viewBox="0 0 18 18" fill="none" xmlns="http://www.w3.org/2000/svg">
<path d="M17.7731 16.7108L12.6087 11.5426C13.6268 10.3216 14.2392 8.76121 14.2392 7.05694C14.2392 3.16884 11.0483 0.00744629 7.12327 0.00744629C3.19828 0.00744629 0 3.17252 0 7.06063C0 10.9487 3.1909 14.1101 7.11589 14.1101C8.78328 14.1101 10.3179 13.5383 11.5352 12.5829L16.7181 17.7658C17.0206 18.0683 17.4706 18.0683 17.7731 17.7658C18.0756 17.4633 18.0756 17.0133 17.7731 16.7108ZM1.51245 7.06063C1.51245 4.00622 4.02828 1.52358 7.11589 1.52358C10.2035 1.52358 12.7193 4.00622 12.7193 7.06063C12.7193 10.115 10.2035 12.5977 7.11589 12.5977C4.02828 12.5977 1.51245 10.1113 1.51245 7.06063Z" fill="#C4C4C4"/>
</svg>
