<svg width="27" height="27" viewBox="0 0 27 27" fill="none" xmlns="http://www.w3.org/2000/svg">
<path d="M27 13.5C27 20.9558 20.9558 27 13.5 27C6.04416 27 0 20.9558 0 13.5C0 6.04416 6.04416 0 13.5 0C20.9558 0 27 6.04416 27 13.5Z" fill="#343942"/>
<path d="M4.42059 11.4444L5.8544 11.2012C6.00375 10.719 6.19578 10.2539 6.43048 9.81007L5.58556 8.62803C5.22711 8.12449 5.28258 7.43746 5.72211 7.0022L6.99376 5.73054C7.23273 5.49158 7.54851 5.35929 7.88563 5.35929C8.1502 5.35929 8.40197 5.44037 8.61533 5.59399L9.80164 6.43891C10.2625 6.19568 10.7447 5.99512 11.244 5.84576L11.4829 4.42902C11.5854 3.8188 12.1102 3.375 12.729 3.375H14.5255C15.1443 3.375 15.6692 3.8188 15.7716 4.42902L16.0191 5.8799C16.497 6.02925 16.9621 6.22555 17.4059 6.46452L18.5795 5.61959C18.7928 5.46597 19.0489 5.38489 19.3134 5.38489C19.6505 5.38489 19.9706 5.51718 20.2053 5.75615L21.4812 7.0278C21.9165 7.46306 21.9762 8.15009 21.6178 8.65364L20.7643 9.85274C20.999 10.3008 21.1868 10.7659 21.3319 11.2481L22.7486 11.4871C23.3588 11.5895 23.8026 12.1144 23.8026 12.7332V14.5297C23.8026 15.1484 23.3588 15.6733 22.7486 15.7757L21.2977 16.0232C21.1484 16.5012 20.9521 16.9663 20.7131 17.4101L21.5538 18.5793C21.9122 19.0829 21.8567 19.7699 21.4172 20.2052L20.1455 21.4768C19.9066 21.7158 19.5908 21.8481 19.2537 21.8481C18.9891 21.8481 18.7373 21.767 18.524 21.6134L17.3249 20.7599C16.8939 20.9861 16.4415 21.1696 15.9764 21.3147L15.7374 22.7485C15.635 23.3587 15.1101 23.8025 14.4914 23.8025H12.6906C12.0718 23.8025 11.547 23.3587 11.4445 22.7485L11.2013 21.3147C10.7191 21.1653 10.254 20.9733 9.81017 20.7386L8.62813 21.5835C8.41477 21.7371 8.15873 21.8182 7.89416 21.8182C7.55705 21.8182 7.24127 21.6859 7.0023 21.447L5.73065 20.1753C5.29538 19.74 5.23564 19.053 5.59409 18.5495L6.43902 17.3632C6.20432 16.9151 6.00802 16.45 5.86293 15.972L4.42912 15.7331C3.8189 15.6307 3.3751 15.1058 3.3751 14.487V12.6905C3.36657 12.0717 3.81037 11.5469 4.42059 11.4444ZM4.51874 14.487C4.51874 14.5425 4.55714 14.5894 4.61262 14.598L6.40488 14.8967C6.63104 14.9351 6.81027 15.1015 6.86574 15.3191C7.0279 15.9464 7.2754 16.5481 7.60825 17.1071C7.72347 17.3034 7.71493 17.5467 7.58265 17.7344L6.52863 19.2194C6.49876 19.2621 6.50303 19.3261 6.54143 19.3645L7.81308 20.6362C7.84295 20.6661 7.87283 20.6703 7.89416 20.6703C7.91977 20.6703 7.9411 20.6618 7.95817 20.649L9.43892 19.595C9.62241 19.4627 9.86992 19.4541 10.0662 19.5694C10.6252 19.9022 11.2269 20.1497 11.8542 20.3119C12.0761 20.3673 12.2425 20.5508 12.2767 20.7727L12.5796 22.565C12.5882 22.6205 12.6351 22.6589 12.6906 22.6589H14.4871C14.5426 22.6589 14.5895 22.6205 14.5981 22.565L14.8968 20.7727C14.9352 20.5466 15.1016 20.3673 15.3192 20.3119C15.9295 20.154 16.5184 19.9107 17.0688 19.595C17.1584 19.5438 17.2609 19.5182 17.359 19.5182C17.4742 19.5182 17.5937 19.5523 17.6919 19.6248L19.1854 20.6874C19.2067 20.7002 19.2281 20.7087 19.2494 20.7087C19.2665 20.7087 19.3006 20.7045 19.3305 20.6746L20.6021 19.4029C20.6406 19.3645 20.6448 19.3048 20.6149 19.2578L19.5652 17.7856C19.4329 17.5979 19.4244 17.3504 19.5396 17.1541C19.8724 16.5993 20.1285 15.9976 20.2906 15.3703C20.3504 15.1527 20.5296 14.9863 20.7515 14.9479L22.5566 14.6406C22.612 14.6321 22.6504 14.5852 22.6504 14.5297V12.7332C22.6504 12.6777 22.612 12.6307 22.5566 12.6222L20.7771 12.3235C20.5509 12.2851 20.3674 12.1187 20.312 11.8968C20.1541 11.2695 19.9108 10.6635 19.5823 10.1045C19.467 9.90822 19.4798 9.66498 19.6121 9.48149L20.6747 7.98794C20.7046 7.94527 20.7003 7.88126 20.6619 7.84285L19.3902 6.5712C19.3604 6.54133 19.3305 6.53706 19.3092 6.53706C19.2836 6.53706 19.2622 6.5456 19.2451 6.5584L17.7729 7.60815C17.5852 7.74044 17.3377 7.74897 17.1414 7.63375C16.5866 7.30091 15.9849 7.04487 15.3576 6.88271C15.14 6.82297 14.9736 6.64374 14.9352 6.42184L14.6279 4.61678C14.6194 4.56131 14.5725 4.5229 14.517 4.5229H12.7205C12.665 4.5229 12.618 4.56131 12.6095 4.61678L12.3108 6.39624C12.2724 6.62241 12.106 6.8059 11.8841 6.86137C11.2397 7.02353 10.6252 7.2753 10.0534 7.61242C9.85711 7.72763 9.61388 7.7191 9.42612 7.58681L7.9539 6.52853C7.93257 6.51572 7.91123 6.50719 7.88989 6.50719C7.87283 6.50719 7.83869 6.51146 7.80882 6.54133L6.53716 7.81298C6.49876 7.85139 6.49449 7.91113 6.52436 7.95807L7.57838 9.43882C7.71067 9.62231 7.7192 9.86981 7.60398 10.0661C7.27114 10.6251 7.02363 11.2268 6.86148 11.8541C6.806 12.076 6.62251 12.2424 6.40061 12.2766L4.60835 12.5795C4.55288 12.5881 4.51447 12.635 4.51447 12.6905V14.487H4.51874Z" fill="#f5f5f7"/>
<path d="M13.5868 9.17871C16.0191 9.17871 17.9949 11.1545 17.9949 13.5868C17.9949 16.0192 16.0191 17.9949 13.5868 17.9949C11.1544 17.9949 9.17866 16.0192 9.17866 13.5868C9.17866 11.1545 11.1544 9.17871 13.5868 9.17871ZM13.5868 16.8428C15.3833 16.8428 16.8427 15.3833 16.8427 13.5868C16.8427 11.7903 15.3833 10.3309 13.5868 10.3309C11.7902 10.3309 10.3308 11.7903 10.3308 13.5868C10.3308 15.3833 11.7902 16.8428 13.5868 16.8428Z" fill="#f5f5f7"/>
</svg>
