<svg width="25" height="25" viewBox="0 0 25 25" fill="none" xmlns="http://www.w3.org/2000/svg">
<path d="M1.27965 9.87662L3.0344 9.57894C3.21718 8.9888 3.45219 8.41956 3.73943 7.87642L2.70538 6.42981C2.2667 5.81356 2.33459 4.97274 2.8725 4.44005L4.42879 2.88377C4.72125 2.59131 5.10771 2.42941 5.52028 2.42941C5.84407 2.42941 6.1522 2.52864 6.41332 2.71665L7.86516 3.75069C8.42918 3.45301 9.01932 3.20756 9.63035 3.02477L9.9228 1.29092C10.0481 0.544111 10.6905 0.000976562 11.4478 0.000976562H13.6464C14.4037 0.000976562 15.046 0.544111 15.1714 1.29092L15.4743 3.06655C16.0592 3.24934 16.6284 3.48957 17.1716 3.78203L18.6077 2.74798C18.8688 2.55997 19.1822 2.46075 19.506 2.46075C19.9186 2.46075 20.3102 2.62264 20.5975 2.9151L22.159 4.47139C22.6917 5.00408 22.7648 5.84489 22.3261 6.46114L21.2816 7.92865C21.5689 8.477 21.7986 9.04625 21.9762 9.63639L23.7101 9.92884C24.4569 10.0542 25 10.6965 25 11.4538V13.6524C25 14.4097 24.4569 15.0521 23.7101 15.1774L21.9344 15.4803C21.7516 16.0652 21.5114 16.6345 21.2189 17.1776L22.2478 18.6085C22.6865 19.2248 22.6186 20.0656 22.0807 20.5983L20.5244 22.1546C20.2319 22.447 19.8454 22.6089 19.4329 22.6089C19.1091 22.6089 18.801 22.5097 18.5398 22.3217L17.0723 21.2772C16.5449 21.554 15.9913 21.7786 15.422 21.9561L15.1296 23.7109C15.0042 24.4577 14.3619 25.0008 13.6046 25.0008H11.4008C10.6435 25.0008 10.0011 24.4577 9.8758 23.7109L9.57812 21.9561C8.98798 21.7733 8.41874 21.5383 7.8756 21.2511L6.42899 22.2851C6.16786 22.4732 5.85452 22.5724 5.53073 22.5724C5.11815 22.5724 4.73169 22.4105 4.43923 22.118L2.88295 20.5617C2.35026 20.029 2.27714 19.1882 2.71583 18.572L3.74987 17.1201C3.46264 16.5718 3.2224 16.0025 3.04484 15.4176L1.2901 15.1252C0.543291 14.9998 0.000154495 14.3575 0.000154495 13.6002V11.4016C-0.0102901 10.6443 0.532845 10.002 1.27965 9.87662ZM1.39977 13.6002C1.39977 13.6681 1.44677 13.7256 1.51466 13.736L3.70809 14.1016C3.98488 14.1486 4.20422 14.3523 4.27212 14.6186C4.47057 15.3863 4.77347 16.1227 5.18082 16.8068C5.32183 17.047 5.31138 17.3447 5.14949 17.5745L3.85954 19.3919C3.82299 19.4441 3.82821 19.5225 3.87521 19.5695L5.4315 21.1258C5.46806 21.1623 5.50461 21.1675 5.53073 21.1675C5.56206 21.1675 5.58817 21.1571 5.60906 21.1414L7.42125 19.8515C7.64581 19.6896 7.94872 19.6791 8.18895 19.8202C8.87309 20.2275 9.60946 20.5304 10.3772 20.7289C10.6487 20.7967 10.8524 21.0213 10.8942 21.2929L11.265 23.4863C11.2754 23.5542 11.3329 23.6012 11.4008 23.6012H13.5994C13.6673 23.6012 13.7247 23.5542 13.7352 23.4863L14.1008 21.2929C14.1478 21.0161 14.3514 20.7967 14.6178 20.7289C15.3646 20.5356 16.0853 20.2379 16.759 19.8515C16.8687 19.7888 16.994 19.7575 17.1141 19.7575C17.2551 19.7575 17.4013 19.7993 17.5215 19.888L19.3493 21.1884C19.3754 21.2041 19.4015 21.2145 19.4277 21.2145C19.4485 21.2145 19.4903 21.2093 19.5269 21.1728L21.0832 19.6165C21.1302 19.5695 21.1354 19.4964 21.0988 19.4389L19.8141 17.6372C19.6522 17.4074 19.6418 17.1045 19.7828 16.8642C20.1901 16.1853 20.5035 15.449 20.7019 14.6813C20.775 14.4149 20.9944 14.2112 21.266 14.1642L23.475 13.7882C23.5429 13.7778 23.5899 13.7203 23.5899 13.6524V11.4538C23.5899 11.3859 23.5429 11.3285 23.475 11.318L21.2973 10.9524C21.0205 10.9054 20.7959 10.7018 20.728 10.4302C20.5348 9.6625 20.2371 8.92091 19.835 8.23677C19.694 7.99654 19.7097 7.69886 19.8716 7.47429L21.1719 5.64644C21.2085 5.59421 21.2033 5.51588 21.1563 5.46888L19.6 3.91259C19.5634 3.87603 19.5269 3.87081 19.5008 3.87081C19.4694 3.87081 19.4433 3.88125 19.4224 3.89692L17.6207 5.18164C17.3909 5.34354 17.088 5.35398 16.8478 5.21298C16.1688 4.80563 15.4325 4.49228 14.6648 4.29383C14.3984 4.22071 14.1948 4.00137 14.1478 3.7298L13.7717 1.52071C13.7613 1.45282 13.7039 1.40581 13.636 1.40581H11.4373C11.3694 1.40581 11.312 1.45282 11.3015 1.52071L10.936 3.69847C10.889 3.97526 10.6853 4.19982 10.4137 4.26771C9.62512 4.46617 8.87309 4.77429 8.17328 5.18686C7.93305 5.32787 7.63537 5.31742 7.40558 5.15553L5.60384 3.86036C5.57773 3.8447 5.55161 3.83425 5.5255 3.83425C5.50461 3.83425 5.46283 3.83947 5.42628 3.87603L3.86999 5.43232C3.82298 5.47932 3.81776 5.55243 3.85432 5.60988L5.14426 7.42207C5.30616 7.64663 5.3166 7.94954 5.1756 8.18977C4.76825 8.87391 4.46535 9.61027 4.26689 10.378C4.199 10.6495 3.97444 10.8532 3.70287 10.895L1.50944 11.2658C1.44155 11.2762 1.39455 11.3337 1.39455 11.4016V13.6002H1.39977Z" fill="#E4456C"/>
<path d="M12.4974 7.10254C15.4742 7.10254 17.8922 9.52053 17.8922 12.4973C17.8922 15.4741 15.4742 17.8921 12.4974 17.8921C9.52063 17.8921 7.10264 15.4741 7.10264 12.4973C7.10264 9.52053 9.52063 7.10254 12.4974 7.10254ZM12.4974 16.4821C14.6961 16.4821 16.4822 14.696 16.4822 12.4973C16.4822 10.2987 14.6961 8.5126 12.4974 8.5126C10.2988 8.5126 8.5127 10.2987 8.5127 12.4973C8.5127 14.696 10.2988 16.4821 12.4974 16.4821Z" fill="#E4456C"/>
</svg>
