<svg width="29" height="29" viewBox="0 0 29 29" fill="none" xmlns="http://www.w3.org/2000/svg">
    <path d="M23.0339 18.5526C21.5063 18.5526 20.1366 19.2109 19.1812 20.256L10.8816 16.264C11.08 15.7114 11.1932 15.1207 11.1932 14.5C11.1932 13.8803 11.0795 13.2886 10.8816 12.736L19.1812 8.74499C20.1366 9.78958 21.5078 10.4494 23.0339 10.4494C25.9192 10.4494 28.2588 8.11022 28.2588 5.22495C28.2588 2.33918 25.9192 0 23.0339 0C20.1481 0 17.8089 2.33918 17.8089 5.22495C17.8089 5.5015 17.837 5.77104 17.8786 6.03607L9.04341 10.2841C8.17968 9.65281 7.11856 9.27605 5.96676 9.27605C3.08149 9.27605 0.74231 11.6147 0.74231 14.499C0.74231 17.3858 3.08149 19.7244 5.96676 19.7244C7.11856 19.7244 8.17968 19.3477 9.04291 18.7154L17.8776 22.9644C17.8365 23.2295 17.8079 23.499 17.8079 23.7756C17.8079 26.6613 20.1476 29 23.0334 29C25.9187 29 28.2578 26.6613 28.2578 23.7756C28.2578 20.8903 25.9192 18.5526 23.0339 18.5526Z" fill="#E4456C" />
</svg>
    