<svg width="154" height="40" viewBox="0 0 154 40" fill="none" xmlns="http://www.w3.org/2000/svg">
<path d="M62.6836 19.8652H56.6982V25.0859H63.5801V26H55.6172V13.2031H63.5361V14.126H56.6982V18.9512H62.6836V19.8652ZM69.7236 24.418L69.7939 24.6904L69.873 24.418L73.8984 13.2031H75.085L70.3213 26H69.2842L64.5205 13.2031H65.6982L69.7236 24.418ZM84.041 19.8652H78.0557V25.0859H84.9375V26H76.9746V13.2031H84.8936V14.126H78.0557V18.9512H84.041V19.8652ZM92.0039 20.6738H88.2861V26H87.1963V13.2031H91.3535C92.7188 13.2031 93.7852 13.5342 94.5527 14.1963C95.3203 14.8584 95.7041 15.7842 95.7041 16.9736C95.7041 17.7939 95.4639 18.5176 94.9834 19.1445C94.5029 19.7715 93.8584 20.2051 93.0498 20.4453L96.249 25.8857V26H95.0977L92.0039 20.6738ZM88.2861 19.751H91.5996C92.5078 19.751 93.2373 19.4932 93.7881 18.9775C94.3389 18.4619 94.6143 17.7939 94.6143 16.9736C94.6143 16.0713 94.3271 15.3711 93.7529 14.873C93.1787 14.375 92.373 14.126 91.3359 14.126H88.2861V19.751ZM110.268 22.8535C110.268 22.1445 110.019 21.585 109.521 21.1748C109.022 20.7588 108.111 20.3662 106.787 19.9971C105.463 19.6221 104.496 19.2148 103.887 18.7754C103.02 18.1543 102.586 17.3398 102.586 16.332C102.586 15.3535 102.987 14.5596 103.79 13.9502C104.599 13.335 105.63 13.0273 106.884 13.0273C107.733 13.0273 108.492 13.1914 109.16 13.5195C109.834 13.8477 110.355 14.3047 110.725 14.8906C111.094 15.4766 111.278 16.1299 111.278 16.8506H110.188C110.188 15.9775 109.89 15.2773 109.292 14.75C108.694 14.2168 107.892 13.9502 106.884 13.9502C105.905 13.9502 105.126 14.1699 104.546 14.6094C103.966 15.043 103.676 15.6113 103.676 16.3145C103.676 16.9648 103.937 17.4951 104.458 17.9053C104.979 18.3154 105.814 18.6787 106.963 18.9951C108.111 19.3057 108.981 19.6309 109.573 19.9707C110.165 20.3047 110.61 20.7061 110.909 21.1748C111.208 21.6436 111.357 22.1973 111.357 22.8359C111.357 23.8438 110.953 24.6523 110.145 25.2617C109.342 25.8711 108.281 26.1758 106.963 26.1758C106.061 26.1758 105.231 26.0146 104.476 25.6924C103.726 25.3701 103.154 24.9189 102.762 24.3389C102.375 23.7588 102.182 23.0938 102.182 22.3438H103.263C103.263 23.2461 103.6 23.958 104.273 24.4795C104.947 25.001 105.844 25.2617 106.963 25.2617C107.959 25.2617 108.759 25.042 109.362 24.6025C109.966 24.1631 110.268 23.5801 110.268 22.8535ZM119.566 24.7959C118.934 25.7158 117.923 26.1758 116.534 26.1758C115.521 26.1758 114.75 25.8828 114.223 25.2969C113.695 24.7051 113.426 23.832 113.414 22.6777V16.4902H114.46V22.5459C114.46 24.3564 115.192 25.2617 116.657 25.2617C118.181 25.2617 119.145 24.6318 119.549 23.3721V16.4902H120.604V26H119.584L119.566 24.7959ZM127.74 17.3867C127.518 17.3457 127.28 17.3252 127.028 17.3252C126.372 17.3252 125.815 17.5098 125.358 17.8789C124.907 18.2422 124.585 18.7725 124.392 19.4697V26H123.346V16.4902H124.374L124.392 18.002C124.948 16.877 125.842 16.3145 127.072 16.3145C127.365 16.3145 127.597 16.3525 127.767 16.4287L127.74 17.3867ZM130.307 26V17.3516H128.733V16.4902H130.307V15.3389C130.307 14.3662 130.553 13.6191 131.045 13.0977C131.543 12.5762 132.234 12.3154 133.119 12.3154C133.518 12.3154 133.89 12.3652 134.235 12.4648L134.156 13.3438C133.863 13.2734 133.544 13.2383 133.198 13.2383C132.618 13.2383 132.167 13.4199 131.845 13.7832C131.522 14.1406 131.361 14.6504 131.361 15.3125V16.4902H133.629V17.3516H131.361V26H130.307Z" fill="#4B4B4B"/>
<circle cx="24.5" cy="20.5" r="15.5" fill="#636262"/>
<path d="M15.7387 23.5567C16.4407 22.783 25.691 14.3189 30.2231 10.1799C30.3048 10.1299 30.436 9.99996 30.7437 10C30.9274 10 31.0805 10.0599 31.203 10.2698C31.3255 10.4797 31.2949 10.7498 31.2643 10.9597L28.202 30.635L28.1992 30.6517C28.1376 31.0142 28.0329 31.6294 27.8958 31.9248C27.6458 32.4633 27.3215 32.8633 26.6403 32.9745C25.9054 33.0945 24.9867 32.7645 24.6192 32.5245C20.4852 30.1852 16.6574 27.3959 15.7387 26.6159C15.2089 26.1662 15.0343 25.7163 15.0037 25.2064C14.9858 24.907 15.0038 24.3666 15.7387 23.5567Z" fill="#4CB9EF"/>
</svg>
