<svg width="14" height="18" viewBox="0 0 14 18" fill="none" xmlns="http://www.w3.org/2000/svg">
  <path fill-rule="evenodd" clip-rule="evenodd" d="M8.1739 2.02861H13.9325V0.0844727H0.0774186V2.02861H5.82371V5.53067C4.91888 5.59959 4.08952 5.75122 3.33561 5.98557C2.27555 6.31369 1.4546 6.78851 0.872758 7.41002C0.290919 8.03152 0 8.74761 0 9.55827V10.1663C0.0159408 10.9615 0.314831 11.6621 0.89667 12.2682C1.48648 12.8704 2.31141 13.3356 3.37148 13.6637C4.11286 13.8905 4.93028 14.038 5.82371 14.1061V18.0001H8.1739V14.1106C9.10571 14.0446 9.94783 13.8956 10.7003 13.6637C11.7523 13.3394 12.5653 12.8704 13.1392 12.2566C13.7131 11.639 14 10.9171 14 10.091V9.55827C14 8.73603 13.7131 8.01608 13.1392 7.39844C12.5653 6.77693 11.7444 6.30404 10.6763 5.97978C9.92605 5.74754 9.0919 5.59748 8.1739 5.52962V2.02861ZM5.82371 6.50897C4.91374 6.6186 4.16009 6.8649 3.56277 7.24788C2.73385 7.7806 2.30743 8.52178 2.28352 9.47141V10.091C2.28352 11.0599 2.70196 11.8223 3.53886 12.3782C4.14071 12.7715 4.90232 13.0246 5.82371 13.1377V6.50897ZM8.1739 13.1461V6.50677C9.11108 6.61529 9.87748 6.86233 10.4731 7.24788C11.302 7.7806 11.7165 8.54687 11.7165 9.54669V10.1721C11.6926 11.1487 11.2741 11.8995 10.4611 12.4245C9.87358 12.8012 9.11117 13.0417 8.1739 13.1461Z" fill="#636262"/>
</svg>
