<svg width="14" height="17" viewBox="0 0 14 17" fill="none" xmlns="http://www.w3.org/2000/svg">
  <path fill-rule="evenodd" clip-rule="evenodd" d="M7.66855 1.22596H13.8086V0H0.0273438V1.22596H6.15508V3.98559C5.11277 4.03909 4.17121 4.19486 3.3304 4.45288C2.2696 4.77448 1.44728 5.23728 0.863436 5.84127C0.287812 6.44134 0 7.13161 0 7.91209V8.79454C0 10.0104 0.645521 10.9771 1.93656 11.6949C3.04547 12.308 4.45164 12.6578 6.15508 12.7443V17H7.66855V12.7534C8.79348 12.7104 9.80205 12.5537 10.6943 12.2832C11.7551 11.9616 12.5692 11.5027 13.1366 10.9065C13.7122 10.3104 14 9.61816 14 8.82984V7.80619C13.9753 7.0414 13.6752 6.36878 13.0996 5.78832C12.5239 5.20787 11.7057 4.7588 10.6449 4.44111C9.76718 4.17619 8.77505 4.02173 7.66855 3.97774V1.22596ZM6.15508 4.86899C4.87223 4.93369 3.81966 5.16227 2.99736 5.64846C2.01057 6.23284 1.51718 6.88452 1.51718 7.93562V8.82984C1.51718 9.84564 2.01057 10.4856 2.99736 11.0817C3.81008 11.5695 4.86265 11.8 6.15508 11.8662V4.86899ZM7.66855 11.8761V4.86107C9.05409 4.9129 10.1696 5.13771 11.015 5.64258C11.9935 6.22696 12.4828 6.86883 12.4828 7.90032V8.8063C12.4828 9.85348 12.0018 10.5052 11.0396 11.0935C10.2024 11.602 9.0787 11.8264 7.66855 11.8761Z" fill="#636262"/>
</svg>
