<svg width="31" height="31" viewBox="0 0 31 31" fill="none" xmlns="http://www.w3.org/2000/svg">
<rect width="31" height="31" fill="#636262"/>
<path d="M15.3271 10.5918H11.2139V22H9.53516V10.5918H5.43066V9.20312H15.3271V10.5918ZM20.8555 16.2959C19.4082 15.8799 18.3535 15.3701 17.6914 14.7666C17.0352 14.1572 16.707 13.4072 16.707 12.5166C16.707 11.5088 17.1084 10.6768 17.9111 10.0205C18.7197 9.3584 19.7686 9.02734 21.0576 9.02734C21.9365 9.02734 22.7188 9.19727 23.4043 9.53711C24.0957 9.87695 24.6289 10.3457 25.0039 10.9434C25.3848 11.541 25.5752 12.1943 25.5752 12.9033H23.8789C23.8789 12.1299 23.6328 11.5234 23.1406 11.084C22.6484 10.6387 21.9541 10.416 21.0576 10.416C20.2256 10.416 19.5752 10.6006 19.1064 10.9697C18.6436 11.333 18.4121 11.8398 18.4121 12.4902C18.4121 13.0117 18.6318 13.4541 19.0713 13.8174C19.5166 14.1748 20.2695 14.5029 21.3301 14.8018C22.3965 15.1006 23.2285 15.4316 23.8262 15.7949C24.4297 16.1523 24.875 16.5713 25.1621 17.0518C25.4551 17.5322 25.6016 18.0977 25.6016 18.748C25.6016 19.7852 25.1973 20.6172 24.3887 21.2441C23.5801 21.8652 22.499 22.1758 21.1455 22.1758C20.2666 22.1758 19.4463 22.0088 18.6846 21.6748C17.9229 21.335 17.334 20.8721 16.918 20.2861C16.5078 19.7002 16.3027 19.0352 16.3027 18.291H17.999C17.999 19.0645 18.2832 19.6768 18.8516 20.1279C19.4258 20.5732 20.1904 20.7959 21.1455 20.7959C22.0361 20.7959 22.7188 20.6143 23.1934 20.251C23.668 19.8877 23.9053 19.3926 23.9053 18.7656C23.9053 18.1387 23.6855 17.6553 23.2461 17.3154C22.8066 16.9697 22.0098 16.6299 20.8555 16.2959Z" fill="white"/>
</svg>
