<svg width="28" height="28" viewBox="0 0 28 28" fill="none" xmlns="http://www.w3.org/2000/svg">
<path fill-rule="evenodd" clip-rule="evenodd" d="M9.69745 6.77131C10.0112 6.49937 10.5498 6.30447 11.1044 6.56048C11.1509 6.58195 11.1959 6.6067 11.2388 6.63456L20.7502 12.7989C20.787 12.8227 20.8223 12.8488 20.856 12.877C21.0201 13.0144 21.1521 13.1862 21.2427 13.3802C21.3333 13.5742 21.3802 13.7857 21.3802 13.9998C21.3802 14.2139 21.3333 14.4254 21.2427 14.6194C21.1521 14.8134 21.0201 14.9852 20.856 15.1227C20.8215 15.1515 20.7854 15.1782 20.7476 15.2025L11.2461 21.3217C10.7176 21.6742 10.1116 21.5558 9.73001 21.2506C9.37545 20.967 9.20145 20.5399 9.20145 20.1254V7.87429C9.20145 7.44984 9.3808 7.04574 9.69745 6.77131ZM11.3553 9.27667V18.6895L18.6401 13.9979L11.3553 9.27667Z" fill="#4F4F4F"/>
<path fill-rule="evenodd" clip-rule="evenodd" d="M14 2.15385C7.45755 2.15385 2.15385 7.45755 2.15385 14C2.15385 20.5424 7.45755 25.8462 14 25.8462C20.5424 25.8462 25.8462 20.5424 25.8462 14C25.8462 7.45755 20.5424 2.15385 14 2.15385ZM0 14C0 6.26801 6.26801 0 14 0C21.732 0 28 6.26801 28 14C28 21.732 21.732 28 14 28C6.26801 28 0 21.732 0 14Z" fill="#4F4F4F"/>
</svg>
