<svg width="34" height="20" viewBox="0 0 34 20" fill="none" xmlns="http://www.w3.org/2000/svg">
    <path fill-rule="evenodd" clip-rule="evenodd" d="M29.2618 12.2342C30.3897 13.3354 31.58 14.3714 32.5916 15.5835C33.0384 16.1222 33.4615 16.6781 33.7851 17.3032C34.2437 18.1918 33.8283 19.1697 33.0315 19.2228L28.0783 19.2206C26.8008 19.3266 25.7816 18.8123 24.9247 17.9388C24.2389 17.2403 23.6039 16.4969 22.9444 15.7748C22.6741 15.4796 22.3911 15.2019 22.0531 14.9824C21.3769 14.5435 20.79 14.6779 20.4036 15.3831C20.01 16.1004 19.9208 16.8947 19.8821 17.6941C19.8291 18.8604 19.4765 19.1671 18.3049 19.2205C15.801 19.3385 13.4247 18.9597 11.2172 17.6966C9.27104 16.5831 7.76184 15.0111 6.44824 13.2315C3.89064 9.76612 1.93204 5.95827 0.171712 2.04373C-0.224523 1.16178 0.065252 0.688356 1.03836 0.6716C2.65424 0.640209 4.2699 0.642444 5.88768 0.669366C6.54442 0.678973 6.9792 1.05566 7.23278 1.67609C8.10702 3.82573 9.17675 5.87091 10.5195 7.76663C10.8771 8.27133 11.2417 8.77604 11.7609 9.13127C12.3353 9.5246 12.7727 9.39424 13.0429 8.75437C13.2144 8.34864 13.2895 7.91163 13.3281 7.47707C13.4561 5.98206 13.473 4.48962 13.2485 2.99986C13.1106 2.0701 12.5869 1.4682 11.6592 1.29226C11.1857 1.20256 11.2562 1.02639 11.4855 0.756164C11.8836 0.290111 12.258 0 13.0045 0H18.6024C19.4837 0.173932 19.6794 0.569832 19.8 1.45658L19.8048 7.67469C19.7952 8.01797 19.9763 9.03666 20.5946 9.26387C21.0895 9.42563 21.4157 9.02973 21.7126 8.71594C23.0529 7.29342 24.0095 5.6123 24.8641 3.87153C25.2433 3.10609 25.5694 2.31117 25.8854 1.51691C26.1196 0.927527 26.487 0.637528 27.1509 0.650375L32.5385 0.655178C32.6983 0.655178 32.8599 0.657524 33.0146 0.683999C33.9225 0.838718 34.1713 1.22926 33.8909 2.11578C33.4491 3.50668 32.5895 4.66579 31.749 5.83025C30.8505 7.07347 29.8895 8.27412 28.9985 9.52472C28.1799 10.6667 28.245 11.2424 29.2618 12.2342Z" fill="#636262" />
</svg>
    